<svg xmlns="http://www.w3.org/2000/svg" width="1000" height="800" viewBox="0 0 1000 800">
  <defs>
    <style>
      .box { fill: #e8f5e9; stroke: #2e7d32; stroke-width: 2; }
      .external { fill: #e3f2fd; stroke: #1565c0; }
      .database { fill: #fff3e0; stroke: #ef6c00; }
      .title { font-size: 24px; font-weight: bold; fill: #212121; }
      .subtitle { font-size: 14px; fill: #424242; }
      .label { font-size: 12px; fill: #212121; }
      .arrow { stroke: #616161; stroke-width: 2; fill: none; marker-end: url(#arrowhead); }
      .note { fill: #fffde7; stroke: #f57f17; stroke-width: 1; }
    </style>
    <marker id="arrowhead" markerWidth="10" markerHeight="10" refX="9" refY="3" orient="auto">
      <polygon points="0 0, 10 3, 0 6" fill="#616161" />
    </marker>
  </defs>
  
  <!-- Title -->
  <text x="500" y="30" text-anchor="middle" class="title">Multi-Tenant SaaS Platform</text>
  <text x="500" y="55" text-anchor="middle" class="subtitle">System Architecture</text>
  
  <!-- Frontend Layer -->
  <rect x="50" y="100" width="200" height="120" class="box" rx="5"/>
  <text x="150" y="125" text-anchor="middle" class="label" font-weight="bold">Frontend Layer</text>
  <rect x="70" y="140" width="160" height="30" class="external" rx="3"/>
  <text x="150" y="160" text-anchor="middle" class="label">React Application</text>
  <rect x="70" y="180" width="160" height="30" class="external" rx="3"/>
  <text x="150" y="200" text-anchor="middle" class="label">Vite Dev Server</text>
  
  <!-- API Gateway -->
  <rect x="320" y="100" width="200" height="150" class="box" rx="5"/>
  <text x="420" y="125" text-anchor="middle" class="label" font-weight="bold">API Gateway</text>
  <rect x="340" y="140" width="160" height="30" class="box" rx="3"/>
  <text x="420" y="160" text-anchor="middle" class="label">Express.js Server</text>
  <rect x="340" y="180" width="160" height="30" class="box" rx="3"/>
  <text x="420" y="200" text-anchor="middle" class="label">Auth Middleware</text>
  <rect x="340" y="220" width="160" height="30" class="box" rx="3"/>
  <text x="420" y="240" text-anchor="middle" class="label">Tenant Isolation</text>
  
  <!-- Business Logic -->
  <rect x="590" y="100" width="200" height="180" class="box" rx="5"/>
  <text x="690" y="125" text-anchor="middle" class="label" font-weight="bold">Business Logic</text>
  <rect x="610" y="140" width="160" height="30" class="box" rx="3"/>
  <text x="690" y="160" text-anchor="middle" class="label">User Management</text>
  <rect x="610" y="180" width="160" height="30" class="box" rx="3"/>
  <text x="690" y="200" text-anchor="middle" class="label">Project Management</text>
  <rect x="610" y="220" width="160" height="30" class="box" rx="3"/>
  <text x="690" y="240" text-anchor="middle" class="label">Task Management</text>
  <rect x="610" y="260" width="160" height="30" class="box" rx="3"/>
  <text x="690" y="280" text-anchor="middle" class="label">Audit Logging</text>
  
  <!-- Database -->
  <ellipse cx="690" cy="420" rx="150" ry="80" class="database"/>
  <text x="690" y="410" text-anchor="middle" class="label" font-weight="bold">PostgreSQL Database</text>
  <text x="690" y="430" text-anchor="middle" class="label" font-size="11">• tenants</text>
  <text x="690" y="445" text-anchor="middle" class="label" font-size="11">• users • projects • tasks</text>
  <text x="690" y="460" text-anchor="middle" class="label" font-size="11">• audit_logs</text>
  
  <!-- External Services -->
  <rect x="50" y="320" width="200" height="100" class="external" rx="5"/>
  <text x="150" y="345" text-anchor="middle" class="label" font-weight="bold">External Services</text>
  <rect x="70" y="360" width="70" height="30" class="external" rx="3"/>
  <text x="105" y="380" text-anchor="middle" class="label">Docker</text>
  <rect x="150" y="360" width="70" height="30" class="external" rx="3"/>
  <text x="185" y="380" text-anchor="middle" class="label">Hosting</text>
  
  <!-- Arrows -->
  <!-- Frontend to API -->
  <path d="M 250 160 L 320 175" class="arrow"/>
  <text x="270" y="160" class="label" font-size="10">REST API</text>
  
  <!-- API to Auth -->
  <path d="M 420 170 L 420 180" class="arrow"/>
  
  <!-- Auth to Tenant -->
  <path d="M 420 210 L 420 220" class="arrow"/>
  
  <!-- Tenant to Business Logic -->
  <path d="M 520 235 L 590 200" class="arrow"/>
  
  <!-- Business Logic to Database -->
  <path d="M 690 290 L 690 340" class="arrow"/>
  
  <!-- Docker to Services -->
  <path d="M 105 320 L 350 250" class="arrow"/>
  <path d="M 105 320 L 600 420" class="arrow"/>
  
  <!-- Hosting to Frontend -->
  <!-- Removed arrow previously referring to external hosting -->
  
  <!-- Notes -->
  <rect x="50" y="550" width="280" height="70" class="note" rx="5"/>
  <text x="60" y="570" class="label" font-weight="bold">Multi-Tenant Isolation:</text>
  <text x="60" y="590" class="label">• Subdomain-based tenant routing</text>
  <text x="60" y="605" class="label">• Row-level security with tenant_id</text>
  
  <rect x="380" y="550" width="280" height="70" class="note" rx="5"/>
  <text x="390" y="570" class="label" font-weight="bold">Security Features:</text>
  <text x="390" y="590" class="label">• JWT-based authentication</text>
  <text x="390" y="605" class="label">• Role-based access control (RBAC)</text>
  
  <rect x="700" y="550" width="250" height="70" class="note" rx="5"/>
  <text x="710" y="570" class="label" font-weight="bold">Data Persistence:</text>
  <text x="710" y="590" class="label">• PostgreSQL with Docker</text>
  <text x="710" y="605" class="label">• Automated migrations</text>
  
  <!-- Technology Stack -->
  <text x="50" y="660" class="label" font-weight="bold">Technology Stack:</text>
  <text x="50" y="680" class="label">Frontend: React 18, Vite 5, React Router 6</text>
  <text x="50" y="695" class="label">Backend: Node.js 20, Express.js 4, PostgreSQL 15</text>
  <text x="50" y="710" class="label">DevOps: Docker, Docker Compose</text>
  <text x="50" y="725" class="label">Authentication: JWT, bcrypt</text>
</svg>
